<?xml version="1.0" standalone="no"?>
<!DOCTYPE svg PUBLIC "-//W3C//DTD SVG 20010904//EN"
 "http://www.w3.org/TR/2001/REC-SVG-20010904/DTD/svg10.dtd">
<svg version="1.0" xmlns="http://www.w3.org/2000/svg"
 width="30.000000pt" height="42.000000pt" viewBox="0 0 30.000000 42.000000"
 preserveAspectRatio="xMidYMid meet">

<g transform="translate(0.000000,42.000000) scale(0.100000,-0.100000)"
fill="#5A283E" stroke="#5A283E">
<path d="M148 392 c12 -12 24 -38 27 -59 11 -64 13 -69 14 -33 1 39 -26 101
-48 108 -7 3 -4 -5 7 -16z"/>
<path d="M39 233 c-13 -16 -12 -17 4 -4 16 13 21 21 13 21 -2 0 -10 -8 -17
-17z"/>
<path d="M225 240 c-5 -8 -4 -11 2 -7 12 8 38 -19 52 -53 7 -17 10 -20 10 -8
1 10 -12 32 -27 49 -22 24 -31 29 -37 19z"/>
<path d="M149 223 c-13 -16 -12 -17 4 -4 9 7 17 15 17 17 0 8 -8 3 -21 -13z"/>
<path d="M119 183 c-13 -16 -12 -17 4 -4 9 7 17 15 17 17 0 8 -8 3 -21 -13z"/>
<path d="M189 183 c-13 -16 -12 -17 4 -4 16 13 21 21 13 21 -2 0 -10 -8 -17
-17z"/>
<path d="M11 174 c0 -11 3 -14 6 -6 3 7 2 16 -1 19 -3 4 -6 -2 -5 -13z"/>
<path d="M280 100 c0 -16 -61 -80 -76 -80 -8 0 -23 15 -34 33 -11 17 -20 27
-20 21 0 -17 40 -64 55 -64 14 0 85 75 85 90 0 6 -2 10 -5 10 -3 0 -5 -4 -5
-10z"/>
<path d="M20 84 c0 -6 15 -23 33 -40 l32 -29 -30 35 c-16 19 -31 37 -32 39 -2
2 -3 0 -3 -5z"/>
<path d="M100 20 c-13 -8 -12 -10 3 -10 9 0 17 5 17 10 0 12 -1 12 -20 0z"/>
</g>
</svg>
